<mxfile host="Electron" agent="Mozilla/5.0 (Windows NT 10.0; Win64; x64) AppleWebKit/537.36 (KHTML, like Gecko) draw.io/24.0.4 Chrome/120.0.6099.109 Electron/28.1.0 Safari/537.36" modified="2025-01-26T15:30:07.399Z" version="24.0.4" etag="7pwdCZUPYbeh2laCZWO1" type="device">
  <diagram name="Page-1" id="bZUiNc4bK9qyyQ-w4RaY">
    <mxGraphModel dx="1034" dy="511" grid="1" gridSize="10" guides="1" tooltips="1" connect="1" arrows="1" fold="1" page="1" pageScale="1" pageWidth="850" pageHeight="1100" math="0" shadow="0">
      <root>
        <mxCell id="0" />
        <mxCell id="1" parent="0" />
        <mxCell id="blCRtftLQ01lya31rrP1-1" value="" style="rounded=1;whiteSpace=wrap;html=1;rotation=90;" parent="1" vertex="1">
          <mxGeometry x="310" y="200" width="240" height="120" as="geometry" />
        </mxCell>
        <mxCell id="blCRtftLQ01lya31rrP1-3" value="ESP32" style="text;html=1;align=center;verticalAlign=middle;whiteSpace=wrap;rounded=0;" parent="1" vertex="1">
          <mxGeometry x="390" y="250" width="60" height="30" as="geometry" />
        </mxCell>
        <mxCell id="blCRtftLQ01lya31rrP1-5" value="Medicine app" style="rounded=0;whiteSpace=wrap;html=1;" parent="1" vertex="1">
          <mxGeometry x="250" y="290" width="80" height="70" as="geometry" />
        </mxCell>
        <mxCell id="blCRtftLQ01lya31rrP1-6" value="Cell phone" style="rounded=0;whiteSpace=wrap;html=1;" parent="1" vertex="1">
          <mxGeometry x="130" y="290" width="80" height="70" as="geometry" />
        </mxCell>
        <mxCell id="blCRtftLQ01lya31rrP1-7" value="Mobile Network" style="rounded=0;whiteSpace=wrap;html=1;" parent="1" vertex="1">
          <mxGeometry x="130" y="400" width="80" height="70" as="geometry" />
        </mxCell>
        <mxCell id="blCRtftLQ01lya31rrP1-8" value="GSM module" style="rounded=0;whiteSpace=wrap;html=1;" parent="1" vertex="1">
          <mxGeometry x="385" y="410" width="80" height="70" as="geometry" />
        </mxCell>
        <mxCell id="blCRtftLQ01lya31rrP1-9" value="Medicine box 1&lt;div&gt;Medicine box 3&lt;/div&gt;&lt;div&gt;Medicine box 3&lt;/div&gt;" style="rounded=0;whiteSpace=wrap;html=1;" parent="1" vertex="1">
          <mxGeometry x="550" y="270" width="110" height="100" as="geometry" />
        </mxCell>
        <mxCell id="blCRtftLQ01lya31rrP1-10" value="" style="shape=flexArrow;endArrow=classic;html=1;rounded=0;" parent="1" edge="1">
          <mxGeometry width="50" height="50" relative="1" as="geometry">
            <mxPoint x="490" y="310" as="sourcePoint" />
            <mxPoint x="550" y="310" as="targetPoint" />
          </mxGeometry>
        </mxCell>
        <mxCell id="blCRtftLQ01lya31rrP1-12" value="" style="shape=flexArrow;endArrow=classic;html=1;rounded=0;" parent="1" edge="1">
          <mxGeometry width="50" height="50" relative="1" as="geometry">
            <mxPoint x="330" y="324.5" as="sourcePoint" />
            <mxPoint x="370" y="325" as="targetPoint" />
          </mxGeometry>
        </mxCell>
        <mxCell id="blCRtftLQ01lya31rrP1-13" value="" style="shape=flexArrow;endArrow=classic;html=1;rounded=0;" parent="1" edge="1">
          <mxGeometry width="50" height="50" relative="1" as="geometry">
            <mxPoint x="210" y="324.5" as="sourcePoint" />
            <mxPoint x="250" y="325" as="targetPoint" />
          </mxGeometry>
        </mxCell>
        <mxCell id="blCRtftLQ01lya31rrP1-14" value="" style="shape=flexArrow;endArrow=classic;html=1;rounded=0;entryX=0.5;entryY=1;entryDx=0;entryDy=0;exitX=0.5;exitY=0;exitDx=0;exitDy=0;" parent="1" source="blCRtftLQ01lya31rrP1-7" target="blCRtftLQ01lya31rrP1-6" edge="1">
          <mxGeometry width="50" height="50" relative="1" as="geometry">
            <mxPoint x="170" y="390" as="sourcePoint" />
            <mxPoint x="210" y="390.5" as="targetPoint" />
          </mxGeometry>
        </mxCell>
        <mxCell id="blCRtftLQ01lya31rrP1-16" value="" style="shape=flexArrow;endArrow=classic;html=1;rounded=0;exitX=-0.007;exitY=0.377;exitDx=0;exitDy=0;exitPerimeter=0;" parent="1" source="blCRtftLQ01lya31rrP1-8" edge="1">
          <mxGeometry width="50" height="50" relative="1" as="geometry">
            <mxPoint x="360" y="434.5" as="sourcePoint" />
            <mxPoint x="210" y="434.5" as="targetPoint" />
            <Array as="points">
              <mxPoint x="280" y="434.5" />
            </Array>
          </mxGeometry>
        </mxCell>
        <mxCell id="blCRtftLQ01lya31rrP1-17" value="" style="shape=flexArrow;endArrow=classic;html=1;rounded=0;entryX=0.5;entryY=0;entryDx=0;entryDy=0;" parent="1" target="blCRtftLQ01lya31rrP1-8" edge="1">
          <mxGeometry width="50" height="50" relative="1" as="geometry">
            <mxPoint x="424" y="380" as="sourcePoint" />
            <mxPoint x="420" y="410" as="targetPoint" />
          </mxGeometry>
        </mxCell>
        <mxCell id="blCRtftLQ01lya31rrP1-20" value="LED display" style="rounded=0;whiteSpace=wrap;html=1;" parent="1" vertex="1">
          <mxGeometry x="550" y="210" width="100" height="50" as="geometry" />
        </mxCell>
        <mxCell id="blCRtftLQ01lya31rrP1-22" value="" style="shape=flexArrow;endArrow=classic;html=1;rounded=0;exitX=0.395;exitY=0.02;exitDx=0;exitDy=0;exitPerimeter=0;" parent="1" source="blCRtftLQ01lya31rrP1-1" edge="1">
          <mxGeometry width="50" height="50" relative="1" as="geometry">
            <mxPoint x="480" y="234.5" as="sourcePoint" />
            <mxPoint x="550" y="234.5" as="targetPoint" />
          </mxGeometry>
        </mxCell>
        <mxCell id="blCRtftLQ01lya31rrP1-23" value="box 1 magnetic 1&lt;div&gt;box 2 magnetic 2&lt;/div&gt;&lt;div&gt;box 3 magnetic 3&lt;/div&gt;" style="rounded=0;whiteSpace=wrap;html=1;" parent="1" vertex="1">
          <mxGeometry x="220" y="160" width="110" height="70" as="geometry" />
        </mxCell>
        <mxCell id="blCRtftLQ01lya31rrP1-24" value="" style="shape=flexArrow;endArrow=classic;html=1;rounded=0;" parent="1" edge="1">
          <mxGeometry width="50" height="50" relative="1" as="geometry">
            <mxPoint x="330" y="194.5" as="sourcePoint" />
            <mxPoint x="370" y="195" as="targetPoint" />
          </mxGeometry>
        </mxCell>
      </root>
    </mxGraphModel>
  </diagram>
</mxfile>
